<mxfile host="app.diagrams.net" agent="Mozilla/5.0 (Macintosh; Intel Mac OS X 10_15_7) AppleWebKit/537.36 (KHTML, like Gecko) Chrome/131.0.0.0 Safari/537.36" version="26.2.9">
  <diagram name="第 1 页" id="MtJVXzgDBkn3UchIpSK0">
    <mxGraphModel dx="1020" dy="570" grid="1" gridSize="10" guides="1" tooltips="1" connect="1" arrows="1" fold="1" page="1" pageScale="1" pageWidth="827" pageHeight="1169" math="0" shadow="0">
      <root>
        <mxCell id="0" />
        <mxCell id="1" parent="0" />
        <mxCell id="h8MxUMHuEeh5kfpRmweB-1" value="交易所" style="rounded=0;whiteSpace=wrap;html=1;" vertex="1" parent="1">
          <mxGeometry x="90" y="160" width="120" height="40" as="geometry" />
        </mxCell>
        <mxCell id="h8MxUMHuEeh5kfpRmweB-2" value="钱包" style="rounded=0;whiteSpace=wrap;html=1;" vertex="1" parent="1">
          <mxGeometry x="250" y="150" width="120" height="60" as="geometry" />
        </mxCell>
        <mxCell id="h8MxUMHuEeh5kfpRmweB-3" value="eth node" style="rounded=0;whiteSpace=wrap;html=1;direction=east;" vertex="1" parent="1">
          <mxGeometry x="110" y="420" width="70" height="40" as="geometry" />
        </mxCell>
        <mxCell id="h8MxUMHuEeh5kfpRmweB-4" value="polygon&lt;span style=&quot;background-color: transparent; color: light-dark(rgb(0, 0, 0), rgb(255, 255, 255));&quot;&gt;&amp;nbsp;node&lt;/span&gt;" style="rounded=0;whiteSpace=wrap;html=1;direction=east;" vertex="1" parent="1">
          <mxGeometry x="400" y="420" width="80" height="40" as="geometry" />
        </mxCell>
        <mxCell id="h8MxUMHuEeh5kfpRmweB-5" value="&lt;span style=&quot;background-color: transparent; color: light-dark(rgb(0, 0, 0), rgb(255, 255, 255));&quot;&gt;base&lt;/span&gt;&lt;span style=&quot;background-color: transparent; color: light-dark(rgb(0, 0, 0), rgb(255, 255, 255));&quot;&gt;&amp;nbsp;node&lt;/span&gt;" style="rounded=0;whiteSpace=wrap;html=1;direction=east;" vertex="1" parent="1">
          <mxGeometry x="210" y="470" width="70" height="40" as="geometry" />
        </mxCell>
        <mxCell id="h8MxUMHuEeh5kfpRmweB-6" value="bsc&lt;span style=&quot;background-color: transparent; color: light-dark(rgb(0, 0, 0), rgb(255, 255, 255));&quot;&gt;&amp;nbsp;node&lt;/span&gt;" style="rounded=0;whiteSpace=wrap;html=1;direction=east;" vertex="1" parent="1">
          <mxGeometry x="210" y="420" width="70" height="40" as="geometry" />
        </mxCell>
        <mxCell id="h8MxUMHuEeh5kfpRmweB-7" value="sol node" style="rounded=0;whiteSpace=wrap;html=1;direction=east;" vertex="1" parent="1">
          <mxGeometry x="310" y="420" width="70" height="40" as="geometry" />
        </mxCell>
        <mxCell id="h8MxUMHuEeh5kfpRmweB-8" value="blast&lt;span style=&quot;background-color: transparent; color: light-dark(rgb(0, 0, 0), rgb(255, 255, 255));&quot;&gt;&amp;nbsp;node&lt;/span&gt;" style="rounded=0;whiteSpace=wrap;html=1;direction=east;" vertex="1" parent="1">
          <mxGeometry x="110" y="470" width="70" height="40" as="geometry" />
        </mxCell>
        <mxCell id="h8MxUMHuEeh5kfpRmweB-9" value="&lt;span style=&quot;background-color: transparent; color: light-dark(rgb(0, 0, 0), rgb(255, 255, 255));&quot;&gt;t&lt;/span&gt;&lt;span style=&quot;background-color: transparent; color: light-dark(rgb(0, 0, 0), rgb(255, 255, 255));&quot;&gt;on&lt;/span&gt;&lt;span style=&quot;background-color: transparent; color: light-dark(rgb(0, 0, 0), rgb(255, 255, 255));&quot;&gt;&amp;nbsp;node&lt;/span&gt;" style="rounded=0;whiteSpace=wrap;html=1;direction=east;" vertex="1" parent="1">
          <mxGeometry x="310" y="470" width="70" height="40" as="geometry" />
        </mxCell>
        <mxCell id="h8MxUMHuEeh5kfpRmweB-11" value="&lt;h3&gt;&lt;br&gt;&lt;/h3&gt;" style="rounded=1;whiteSpace=wrap;html=1;align=left;verticalAlign=top;" vertex="1" parent="1">
          <mxGeometry x="390" y="10" width="130" height="160" as="geometry" />
        </mxCell>
        <mxCell id="h8MxUMHuEeh5kfpRmweB-14" value="地址生成" style="rounded=1;whiteSpace=wrap;html=1;" vertex="1" parent="1">
          <mxGeometry x="410" y="70" width="90" height="40" as="geometry" />
        </mxCell>
        <mxCell id="h8MxUMHuEeh5kfpRmweB-15" value="私玥管理" style="rounded=1;whiteSpace=wrap;html=1;" vertex="1" parent="1">
          <mxGeometry x="410" y="120" width="90" height="40" as="geometry" />
        </mxCell>
        <mxCell id="h8MxUMHuEeh5kfpRmweB-16" value="&lt;h3 style=&quot;text-align: left;&quot;&gt;&lt;font style=&quot;font-size: 14px; line-height: 14px;&quot;&gt;地址管理&lt;/font&gt;&lt;/h3&gt;" style="rounded=1;whiteSpace=wrap;html=1;fillColor=#d5e8d4;strokeColor=#82b366;dashed=1;dashPattern=1 2;" vertex="1" parent="1">
          <mxGeometry x="410" y="20" width="90" height="40" as="geometry" />
        </mxCell>
        <mxCell id="h8MxUMHuEeh5kfpRmweB-19" value="&lt;h3&gt;&lt;br&gt;&lt;/h3&gt;" style="rounded=1;whiteSpace=wrap;html=1;align=left;verticalAlign=top;" vertex="1" parent="1">
          <mxGeometry x="560" y="10" width="130" height="210" as="geometry" />
        </mxCell>
        <mxCell id="h8MxUMHuEeh5kfpRmweB-20" value="提现" style="rounded=1;whiteSpace=wrap;html=1;" vertex="1" parent="1">
          <mxGeometry x="580" y="70" width="90" height="40" as="geometry" />
        </mxCell>
        <mxCell id="h8MxUMHuEeh5kfpRmweB-21" value="充值" style="rounded=1;whiteSpace=wrap;html=1;" vertex="1" parent="1">
          <mxGeometry x="580" y="120" width="90" height="40" as="geometry" />
        </mxCell>
        <mxCell id="h8MxUMHuEeh5kfpRmweB-22" value="&lt;h3 style=&quot;text-align: left;&quot;&gt;&lt;font style=&quot;font-size: 14px; line-height: 14px;&quot;&gt;交易管理&lt;/font&gt;&lt;/h3&gt;" style="rounded=1;whiteSpace=wrap;html=1;fillColor=#d5e8d4;strokeColor=#82b366;dashed=1;dashPattern=1 2;" vertex="1" parent="1">
          <mxGeometry x="580" y="20" width="90" height="40" as="geometry" />
        </mxCell>
        <mxCell id="h8MxUMHuEeh5kfpRmweB-23" value="交易查询" style="rounded=1;whiteSpace=wrap;html=1;" vertex="1" parent="1">
          <mxGeometry x="580" y="170" width="90" height="40" as="geometry" />
        </mxCell>
        <mxCell id="h8MxUMHuEeh5kfpRmweB-25" value="&lt;h3&gt;&lt;br&gt;&lt;/h3&gt;" style="rounded=1;whiteSpace=wrap;html=1;align=left;verticalAlign=top;" vertex="1" parent="1">
          <mxGeometry x="720" y="10" width="130" height="260" as="geometry" />
        </mxCell>
        <mxCell id="h8MxUMHuEeh5kfpRmweB-26" value="地址余额" style="rounded=1;whiteSpace=wrap;html=1;" vertex="1" parent="1">
          <mxGeometry x="740" y="70" width="90" height="40" as="geometry" />
        </mxCell>
        <mxCell id="h8MxUMHuEeh5kfpRmweB-27" value="资产总览" style="rounded=1;whiteSpace=wrap;html=1;" vertex="1" parent="1">
          <mxGeometry x="740" y="120" width="90" height="40" as="geometry" />
        </mxCell>
        <mxCell id="h8MxUMHuEeh5kfpRmweB-28" value="&lt;h3 style=&quot;text-align: left;&quot;&gt;&lt;font style=&quot;font-size: 14px; line-height: 14px;&quot;&gt;资产管理&lt;/font&gt;&lt;/h3&gt;" style="rounded=1;whiteSpace=wrap;html=1;fillColor=#d5e8d4;strokeColor=#82b366;dashed=1;dashPattern=1 2;" vertex="1" parent="1">
          <mxGeometry x="740" y="20" width="90" height="40" as="geometry" />
        </mxCell>
        <mxCell id="h8MxUMHuEeh5kfpRmweB-29" value="对账" style="rounded=1;whiteSpace=wrap;html=1;" vertex="1" parent="1">
          <mxGeometry x="740" y="170" width="90" height="40" as="geometry" />
        </mxCell>
        <mxCell id="h8MxUMHuEeh5kfpRmweB-30" value="归集" style="rounded=1;whiteSpace=wrap;html=1;" vertex="1" parent="1">
          <mxGeometry x="740" y="220" width="90" height="40" as="geometry" />
        </mxCell>
      </root>
    </mxGraphModel>
  </diagram>
</mxfile>
